<?xml version="1.0" encoding="utf-8"?>
<!-- Generator: Adobe Illustrator 24.3.0, SVG Export Plug-In . SVG Version: 6.00 Build 0)  -->
<svg version="1.1" id="Layer_1" xmlns="http://www.w3.org/2000/svg" xmlns:xlink="http://www.w3.org/1999/xlink" x="0px" y="0px"
	 viewBox="0 0 62 62" style="enable-background:new 0 0 62 62;" xml:space="preserve">
<style type="text/css">
	.st0{fill:#800000;}
	.st1{fill:#FFFFFF;}
</style>
<circle class="st0" cx="31" cy="31" r="31"/>
<polygon class="st1" points="14.3,42.8 15.4,42.8 16.2,43.6 17.4,43.6 17.4,44.2 16.8,44.7 17.6,44.7 18.3,45.3 18.3,46.1 
	16.9,47.5 16.9,50.2 16.3,50.2 16,49.9 16,50.7 15.1,51.7 15.1,49.6 14.6,49.6 14.6,50.9 14.1,50.9 13.5,50.3 13.5,48.3 14.5,47.4 
	14.5,45.7 13.8,45 13.4,45.4 14.1,46.1 13.6,46.5 13.4,46.2 12.6,46.2 12,45.7 12,44.4 13,43.5 13.7,43.5 "/>
<polygon class="st1" points="15.2,41.3 15.2,42.5 17.5,42.5 18,43 18.5,43 18.5,41.5 20.9,41.5 21.7,40.8 22.9,40.8 23.8,39.9 
	26.1,39.9 26.6,40.4 25.7,41.2 25.7,42.7 26.9,43.8 27.3,43.8 28.4,42.7 28.4,42 29.1,41.4 30,41.4 30,40.8 29.2,40 29.2,39.1 
	29.7,38.7 30.8,39.8 30.5,40.2 33.3,40.2 33.3,39.4 34.3,38.5 34.6,38.5 34.6,39.5 35.2,39.5 35.2,37.7 36.2,37.7 36.6,38 
	36.6,36.9 37,36.5 37.6,36.5 37.6,37.1 37.2,37.4 37.2,38.7 38.5,37.3 38.5,36.6 39.3,35.8 38.6,35 38.6,33 39.1,32.5 39.1,28 
	39.8,28 40.2,28.4 40.2,26 40.8,25.4 40.8,22.7 39,21 39,18.7 37.7,18.7 37.7,19.8 38.1,19.8 38.3,19.5 38.7,19.5 38.7,20.6 
	37.7,20.6 37.2,20.2 37.2,19.6 36.4,19.6 36.4,21 35.8,21.6 35.8,23.4 36.3,23.8 36.3,26.4 35.4,27.3 35.4,29 33.9,30.5 33.9,31.2 
	32.4,32.6 31.6,32.6 30.8,33.4 29.8,33.4 29.8,32.4 30.5,31.7 30.1,31.2 29.1,32.2 29.1,34.2 27.8,35.6 27.8,36.9 27.2,37.4 
	26.5,37.4 26.1,37.1 24.4,37.1 24,37.5 20.6,37.5 17.6,40.5 16.8,40.5 16,41.3 "/>
<polygon class="st1" points="20.5,42.2 19.1,43.5 19.1,45.1 20.2,46.2 20.7,46.2 20.7,45.3 22.1,43.9 22.9,43.9 23.5,44.5 
	23.8,44.2 23.8,43.7 24.6,42.8 24.6,41.8 24.2,41.8 23.6,41.2 22.7,41.2 21.9,42 21.9,42.5 20.8,42.5 "/>
<polygon class="st1" points="39.7,6.5 39.1,7.2 39.1,11.5 38.6,12 38.6,13.6 37.5,13.6 36.8,12.8 36.2,13.4 37,14.2 35,16.2 
	35.9,17 35.9,19 36.8,18.1 38.3,18.1 36.6,16.3 37.3,15.6 37.9,16.2 38.6,15.5 40.8,15.5 42.7,17.4 43.1,17.1 43.1,15.7 44.8,14 
	46.9,14 48.3,12.6 48,12.3 47.3,12.9 46.9,12.5 46.9,10.5 47.2,10.1 46.9,9.8 45.7,11 44.7,11 44,10.3 43.5,10.3 "/>
</svg>
