<svg id="Layer_1" data-name="Layer 1" xmlns="http://www.w3.org/2000/svg" viewBox="0 0 7.62 7.62"><defs><style>.cls-1{fill:#fff;}</style></defs><title>UpArrow</title><g id="Layer_1-2" data-name="Layer 1"><path class="cls-1" d="M.63,4.44A3.81,3.81,0,1,0,4.44.63h0A3.83,3.83,0,0,0,.63,4.44Zm4-2.13L6,3.7a.27.27,0,0,1,.09.21A.31.31,0,0,1,6,4.13a.3.3,0,0,1-.41,0h0L4.79,3.3V6.4a.31.31,0,0,1-.31.31.3.3,0,0,1-.3-.31V3.26l-.83.83a.3.3,0,1,1-.43-.43L4.31,2.28a.3.3,0,0,1,.21-.1A.29.29,0,0,1,4.66,2.31Z" transform="translate(-0.63 -0.63)"/></g></svg>
